<?xml version="1.0" standalone="no"?>
<!DOCTYPE svg PUBLIC "-//W3C//DTD SVG 20010904//EN"
 "http://www.w3.org/TR/2001/REC-SVG-20010904/DTD/svg10.dtd">
<svg version="1.0" xmlns="http://www.w3.org/2000/svg"
 width="76.000000pt" height="76.000000pt" viewBox="0 0 76.000000 76.000000"
 preserveAspectRatio="xMidYMid meet">
<metadata>
Created by potrace 1.11, written by Peter Selinger 2001-2013
</metadata>
<g transform="translate(0.000000,76.000000) scale(0.100000,-0.100000)"
fill="#000000" stroke="none">
<path d="M0 380 l0 -380 380 0 380 0 0 380 0 380 -380 0 -380 0 0 -380z m230
254 c16 -40 12 -166 -5 -191 -13 -18 -13 -22 -1 -26 11 -5 15 -37 18 -149 2
-79 7 -151 12 -161 15 -31 -20 -19 -48 17 -25 33 -26 41 -26 150 0 98 -2 116
-16 116 -13 0 -15 -16 -12 -115 l3 -115 -38 0 c-35 0 -37 1 -27 21 8 13 10 96
8 250 l-3 229 63 0 c58 0 63 -2 72 -26z m140 -71 c37 -166 39 -168 37 -30 l-2
127 35 0 35 0 0 -250 0 -250 -30 0 -30 0 -32 133 -32 132 1 -133 0 -134 -30
-36 c-35 -43 -46 -40 -32 9 13 46 13 485 0 510 -10 17 -7 19 24 19 l34 0 22
-97z m292 -132 c-2 -154 0 -237 8 -250 10 -20 8 -21 -27 -21 l-39 0 4 71 c4
65 3 71 -14 67 -16 -3 -19 -13 -19 -68 0 -60 -2 -66 -34 -97 -19 -18 -35 -32
-35 -31 -1 2 1 121 4 266 6 303 2 292 99 292 l56 0 -3 -229z"/>
<path d="M150 535 c0 -60 3 -75 15 -75 12 0 15 15 15 75 0 60 -3 75 -15 75
-12 0 -15 -15 -15 -75z"/>
<path d="M570 479 c0 -115 2 -130 16 -125 9 3 18 6 20 6 2 0 4 56 4 125 0 118
-1 125 -20 125 -19 0 -20 -7 -20 -131z"/>
</g>
</svg>
